<?xml version="1.0" encoding="utf-8"?>
<!-- Generator: Adobe Illustrator 27.0.1, SVG Export Plug-In . SVG Version: 6.00 Build 0)  -->
<svg version="1.1" id="Capa_1" xmlns="http://www.w3.org/2000/svg" xmlns:xlink="http://www.w3.org/1999/xlink" x="0px" y="0px"
	 viewBox="0 0 24 24" style="enable-background:new 0 0 24 24;" xml:space="preserve">
<style type="text/css">
	.st0{fill:#F50082;}
</style>
<path class="st0" d="M1.2,1.5c-0.5,0-1,0.4-1,1s0.4,1,1,1h2.1l2.5,13c0.1,0.5,0.5,0.8,1,0.8h13.4c0.5,0,1-0.4,1-1s-0.4-1-1-1H7.6
	l-0.4-2h13c0.6,0,1.1-0.4,1.3-1l2.2-7.9c0.2-0.8-0.4-1.7-1.3-1.7H5.2L5.1,2.3c-0.1-0.5-0.5-0.8-1-0.8H1.2z M7.5,22.5
	c1.1,0,2-0.9,2-2s-0.9-2-2-2s-2,0.9-2,2S6.4,22.5,7.5,22.5z M21.2,20.5c0-1.1-0.9-2-2-2s-2,0.9-2,2s0.9,2,2,2S21.2,21.6,21.2,20.5z"
	/>
</svg>
