<?xml version="1.0" encoding="utf-8"?>
<!-- Generator: Adobe Illustrator 27.0.1, SVG Export Plug-In . SVG Version: 6.00 Build 0)  -->
<svg version="1.1" id="Capa_1" xmlns="http://www.w3.org/2000/svg" xmlns:xlink="http://www.w3.org/1999/xlink" x="0px" y="0px"
	 viewBox="0 0 24 24" style="enable-background:new 0 0 24 24;" xml:space="preserve">
<style type="text/css">
	.st0{fill:#F50082;}
</style>
<path class="st0" d="M12,2.7C8.6,2.7,5.9,4.2,4,6C2,7.8,0.7,10,0.1,11.5c-0.1,0.3-0.1,0.7,0,1C0.7,14,2,16.2,4,18
	c2,1.8,4.7,3.4,8,3.4s6.1-1.5,8-3.4c1.9-1.8,3.3-4,3.9-5.5c0.1-0.3,0.1-0.7,0-1C23.3,10,22,7.8,20,6C18.1,4.2,15.4,2.7,12,2.7z
	 M18,12c0,3.3-2.7,6-6,6s-6-2.7-6-6s2.7-6,6-6S18,8.7,18,12z M12,9.3c0,1.5-1.2,2.7-2.7,2.7c-0.5,0-0.9-0.1-1.3-0.3
	c0,0.1,0,0.2,0,0.3c0,2.2,1.8,4,4,4s4-1.8,4-4s-1.8-4-4-4c-0.1,0-0.2,0-0.3,0C11.9,8.4,12,8.9,12,9.3z"/>
</svg>
