<?xml version="1.0" encoding="utf-8"?>
<!-- Generator: Adobe Illustrator 27.0.1, SVG Export Plug-In . SVG Version: 6.00 Build 0)  -->
<svg version="1.1" id="Capa_1" xmlns="http://www.w3.org/2000/svg" xmlns:xlink="http://www.w3.org/1999/xlink" x="0px" y="0px"
	 viewBox="0 0 24 24" style="enable-background:new 0 0 24 24;" xml:space="preserve">
<style type="text/css">
	.st0{fill:#F50082;}
</style>
<path class="st0" d="M19.5,9.8c0,2.2-0.7,4.1-1.9,5.7l5.9,5.9c0.6,0.6,0.6,1.5,0,2.1c-0.6,0.6-1.5,0.6-2.1,0l-5.9-5.9
	c-1.6,1.2-3.6,1.9-5.7,1.9C4.4,19.5,0,15.1,0,9.8S4.4,0,9.8,0S19.5,4.4,19.5,9.8z M9.8,16.5c3.7,0,6.7-3,6.7-6.7S13.5,3,9.8,3
	S3,6,3,9.8S6,16.5,9.8,16.5z"/>
</svg>
