<svg width="51" height="48" viewBox="0 0 51 48" fill="none" xmlns="http://www.w3.org/2000/svg">
<path d="M18.4297 31.955C13.5929 28.7743 12.3667 22.4326 15.6852 17.7967C19.0038 13.1608 25.6203 11.9855 30.4571 15.1662" stroke="#F50082" stroke-width="2" stroke-miterlimit="10"/>
<path d="M28.5322 10.3135L30.6959 15.1782L25.6167 17.2535" stroke="#F50082" stroke-width="2" stroke-miterlimit="10"/>
<path d="M18.3525 20H20.9609L24.6126 27.5L22.9766 30.244C22.7779 30.5772 23.0181 31 23.4061 31H34.5243" stroke="#F50082" stroke-width="2"/>
<path d="M22.0039 22H34.4864C34.7257 22 34.8687 22.2665 34.7363 22.4659L31.6907 27.0531C31.5053 27.3322 31.1926 27.5 30.8576 27.5H24.6123" stroke="#F50082" stroke-width="2"/>
<ellipse cx="23.5689" cy="34.5" rx="1.56501" ry="1.5" fill="#F50082"/>
<ellipse cx="32.9595" cy="34.5" rx="1.56501" ry="1.5" fill="#F50082"/>
</svg>
