<svg width="25" height="24" viewBox="0 0 25 24" fill="none" xmlns="http://www.w3.org/2000/svg">
<g clip-path="url(#clip0_33_9720)">
<path d="M12.3594 6C16.1494 6 19.5294 8.13 21.1794 11.5C19.5294 14.87 16.1494 17 12.3594 17C8.56938 17 5.18937 14.87 3.53938 11.5C5.18937 8.13 8.56938 6 12.3594 6ZM12.3594 4C7.35938 4 3.08938 7.11 1.35938 11.5C3.08938 15.89 7.35938 19 12.3594 19C17.3594 19 21.6294 15.89 23.3594 11.5C21.6294 7.11 17.3594 4 12.3594 4ZM12.3594 9C13.7394 9 14.8594 10.12 14.8594 11.5C14.8594 12.88 13.7394 14 12.3594 14C10.9794 14 9.85938 12.88 9.85938 11.5C9.85938 10.12 10.9794 9 12.3594 9ZM12.3594 7C9.87938 7 7.85938 9.02 7.85938 11.5C7.85938 13.98 9.87938 16 12.3594 16C14.8394 16 16.8594 13.98 16.8594 11.5C16.8594 9.02 14.8394 7 12.3594 7Z" fill="#F50082"/>
</g>
<defs>
<clipPath id="clip0_33_9720">
<rect width="24" height="24" fill="white" transform="translate(0.359375)"/>
</clipPath>
</defs>
</svg>
